<?xml version="1.0" encoding="utf-8"?>
<!-- Generator: Adobe Illustrator 19.0.0, SVG Export Plug-In . SVG Version: 6.00 Build 0)  -->
<svg version="1.1" id="Calque_1" xmlns="http://www.w3.org/2000/svg" xmlns:xlink="http://www.w3.org/1999/xlink" x="0px" y="0px"
	 viewBox="0 0 27.6 27.7" style="enable-background:new 0 0 27.6 27.7;" xml:space="preserve">
<style type="text/css">
	.st0{fill:#FFFFFF;}
</style>
<g>
	<path class="st0" d="M13.8,27.4c-7.5,0-13.5-6.1-13.5-13.5c0-7.5,6.1-13.5,13.5-13.5c7.5,0,13.5,6.1,13.5,13.5
		C27.3,21.3,21.3,27.4,13.8,27.4L13.8,27.4z M13.8,1.1c-7,0-12.7,5.7-12.7,12.7c0,7,5.7,12.7,12.7,12.7c7,0,12.7-5.7,12.7-12.7
		C26.5,6.8,20.8,1.1,13.8,1.1L13.8,1.1z M13.8,1.1"/>
	<path class="st0" d="M13.8,27.4c-2.8,0-5.5-0.9-7.8-2.5c-0.1-0.1-0.2-0.2-0.2-0.4c0-0.2,0.1-0.3,0.3-0.3c3.4-1.3,3.9-2.3,3.9-4.2
		c0-0.5-0.1-0.7-0.3-1c-0.3-0.4-0.7-1-0.9-2.4c0-0.2-0.1-0.2-0.3-0.3c-0.5-0.2-1-0.6-1.1-2.2c0-0.8,0.3-1.2,0.5-1.4
		c0-0.3-0.1-0.7-0.2-1.2C7.4,9.1,7.3,6.3,10.5,5c2.8-1.1,5-0.5,5.7,0.2c0.5,0,1.8,0.1,2.7,1.2c1.4,1.6,0.9,5.2,0.8,6.2
		c0.2,0.2,0.5,0.6,0.5,1.4c-0.1,1.6-0.6,1.9-1.1,2.2c-0.2,0.1-0.2,0.1-0.3,0.3c-0.3,1.4-0.6,2-0.9,2.4c-0.2,0.3-0.3,0.5-0.3,1
		c0,2,0.5,3,3.9,4.2c0.1,0.1,0.2,0.2,0.3,0.3c0,0.2,0,0.3-0.2,0.4C19.3,26.5,16.6,27.4,13.8,27.4L13.8,27.4z M7.1,24.6
		c2,1.3,4.3,1.9,6.7,1.9s4.7-0.7,6.7-1.9c-2.8-1.2-3.7-2.3-3.7-4.7c0-0.8,0.2-1.1,0.5-1.5c0.2-0.4,0.6-0.8,0.8-2.1
		c0.1-0.6,0.5-0.8,0.7-0.9c0.3-0.1,0.5-0.2,0.6-1.5c0-0.6-0.3-0.8-0.3-0.8c-0.2-0.1-0.2-0.3-0.2-0.4c0.2-1.1,0.5-4.5-0.6-5.8
		c-0.7-0.9-1.9-0.9-2.2-0.9c0,0-0.1,0-0.1,0c-0.1,0-0.3-0.1-0.3-0.2c-0.2-0.4-2.2-1.1-4.8-0.1c-2.6,1.1-2.7,3.4-2.3,5.5
		c0.1,0.8,0.2,1.5,0.2,1.5c0,0.2-0.1,0.4-0.2,0.4c0,0-0.3,0.2-0.3,0.8c0.1,1.2,0.4,1.3,0.6,1.4c0.2,0.1,0.6,0.3,0.7,0.9
		c0.2,1.3,0.5,1.7,0.8,2.1c0.2,0.4,0.5,0.7,0.5,1.5C10.8,22.3,10,23.4,7.1,24.6L7.1,24.6z M7.1,24.6"/>
</g>
</svg>
