<?xml version="1.0" encoding="utf-8"?>
<!-- Generator: Adobe Illustrator 19.0.0, SVG Export Plug-In . SVG Version: 6.00 Build 0)  -->
<svg version="1.1" id="Calque_1" xmlns="http://www.w3.org/2000/svg" xmlns:xlink="http://www.w3.org/1999/xlink" x="0px" y="0px"
	 viewBox="0 0 27.6 27.7" style="enable-background:new 0 0 27.6 27.7;" xml:space="preserve">
<style type="text/css">
	.st0{fill:#FFFFFF;}
</style>
<path class="st0" d="M27.2,26.4l-7.5-7.8c1.9-1.9,3.1-4.6,3.1-7.5c0-5.9-4.8-10.6-10.6-10.6C6.3,0.4,1.5,5.2,1.5,11.1
	c0,5.9,4.8,10.6,10.6,10.6c2.6,0,4.9-0.9,6.8-2.4l7.5,7.8c0.1,0.1,0.2,0.2,0.4,0.2c0.1,0,0.3,0,0.4-0.1
	C27.4,26.9,27.4,26.6,27.2,26.4L27.2,26.4z M12.2,20.7c-5.3,0-9.6-4.3-9.6-9.6c0-5.3,4.3-9.6,9.6-9.6c5.3,0,9.6,4.3,9.6,9.6
	C21.8,16.4,17.5,20.7,12.2,20.7L12.2,20.7z M12.2,20.7"/>
</svg>
